<svg xmlns="http://www.w3.org/2000/svg" xmlns:xlink="http://www.w3.org/1999/xlink" viewBox="0 0 48 48"><defs><style>.cls-1{fill:url(#linear-gradient);}.cls-2{fill:url(#linear-gradient-2);}.cls-3{fill:url(#linear-gradient-3);}.cls-4{fill:url(#linear-gradient-4);}.cls-5{fill:url(#linear-gradient-5);}.cls-6{fill:url(#linear-gradient-6);}.cls-7{fill:url(#linear-gradient-7);}.cls-8{fill:url(#linear-gradient-8);}</style><linearGradient id="linear-gradient" x1="24" y1="2.667" x2="24" y2="27.167" gradientUnits="userSpaceOnUse"><stop offset="0" stop-color="#eaecf7"/><stop offset="1" stop-color="#cdd3f1"/></linearGradient><linearGradient id="linear-gradient-2" x1="24" y1="18.256" x2="24" y2="31.006" gradientUnits="userSpaceOnUse"><stop offset="0" stop-color="#e2e5f4" stop-opacity="0"/><stop offset="1" stop-color="#9aa6e2"/></linearGradient><linearGradient id="linear-gradient-3" x1="24" y1="21.125" x2="24" y2="45.391" gradientUnits="userSpaceOnUse"><stop offset="0" stop-color="#ff4343"/><stop offset="1" stop-color="#e40000"/></linearGradient><linearGradient id="linear-gradient-4" x1="24.822" y1="35.476" x2="24.822" y2="45.742" gradientUnits="userSpaceOnUse"><stop offset="0" stop-color="#ff4343" stop-opacity="0"/><stop offset="1" stop-color="#af0000"/></linearGradient><linearGradient id="linear-gradient-5" x1="15.417" y1="38.156" x2="12.542" y2="43.927" xlink:href="#linear-gradient"/><linearGradient id="linear-gradient-6" x1="8.358" y1="34.263" x2="5.65" y2="39.721" xlink:href="#linear-gradient"/><linearGradient id="linear-gradient-7" x1="35.406" y1="38.172" x2="32.594" y2="43.828" xlink:href="#linear-gradient"/><linearGradient id="linear-gradient-8" x1="42.324" y1="34.412" x2="39.574" y2="39.787" xlink:href="#linear-gradient"/></defs><title>Weather Graadient</title><g id="Thunderstorm"><path class="cls-1" d="M38,12c-.121,0-.238.013-.357.018a12.981,12.981,0,0,0-23.7-3.826A10,10,0,1,0,12,28H38a8,8,0,0,0,0-16Z"/><path class="cls-2" d="M2,18A10,10,0,0,0,12,28H38a7.972,7.972,0,0,0,7.738-10Z"/><polygon class="cls-3" points="27.333 20 24.667 31 32 31 20.667 46 23.333 35 16 35 27.333 20"/><polygon class="cls-4" points="23.333 35 20.667 46 28.978 35 23.333 35"/><path class="cls-5" d="M13,44a1,1,0,0,1-.894-1.447l2-4a1,1,0,0,1,1.789.895l-2,4A1,1,0,0,1,13,44Z"/><path class="cls-6" d="M6,40a1,1,0,0,1-.894-1.447l2-4a1,1,0,1,1,1.789.895l-2,4A1,1,0,0,1,6,40Z"/><path class="cls-7" d="M33,44a1,1,0,0,1-.894-1.447l2-4a1,1,0,1,1,1.789.895l-2,4A1,1,0,0,1,33,44Z"/><path class="cls-8" d="M40,40a1,1,0,0,1-.894-1.447l2-4a1,1,0,1,1,1.789.895l-2,4A1,1,0,0,1,40,40Z"/></g></svg>