<svg xmlns="http://www.w3.org/2000/svg" xmlns:xlink="http://www.w3.org/1999/xlink" viewBox="0 0 48 48"><defs><style>.cls-1{fill:url(#linear-gradient);}.cls-2{fill:url(#linear-gradient-2);}.cls-3{fill:url(#linear-gradient-3);}.cls-4{fill:url(#linear-gradient-4);}</style><linearGradient id="linear-gradient" x1="24" y1="2.667" x2="24" y2="27.167" gradientUnits="userSpaceOnUse"><stop offset="0" stop-color="#eaecf7"/><stop offset="1" stop-color="#cdd3f1"/></linearGradient><linearGradient id="linear-gradient-2" x1="24" y1="18.256" x2="24" y2="31.006" gradientUnits="userSpaceOnUse"><stop offset="0" stop-color="#e2e5f4" stop-opacity="0"/><stop offset="1" stop-color="#9aa6e2"/></linearGradient><linearGradient id="linear-gradient-3" x1="24" y1="21.125" x2="24" y2="45.391" gradientUnits="userSpaceOnUse"><stop offset="0" stop-color="#ff4343"/><stop offset="1" stop-color="#e40000"/></linearGradient><linearGradient id="linear-gradient-4" x1="24.822" y1="35.476" x2="24.822" y2="45.742" gradientUnits="userSpaceOnUse"><stop offset="0" stop-color="#ff4343" stop-opacity="0"/><stop offset="1" stop-color="#af0000"/></linearGradient></defs><title>Weather Graadient</title><g id="Storm"><path class="cls-1" d="M38,12c-.121,0-.238.013-.357.018a12.981,12.981,0,0,0-23.7-3.826A10,10,0,1,0,12,28H38a8,8,0,0,0,0-16Z"/><path class="cls-2" d="M2,18A10,10,0,0,0,12,28H38a7.972,7.972,0,0,0,7.738-10Z"/><polygon class="cls-3" points="27.333 20 24.667 31 32 31 20.667 46 23.333 35 16 35 27.333 20"/><polygon class="cls-4" points="23.333 35 20.667 46 28.978 35 23.333 35"/></g></svg>