<svg xmlns="http://www.w3.org/2000/svg" xmlns:xlink="http://www.w3.org/1999/xlink" viewBox="0 0 48 48"><defs><style>.cls-1{fill:url(#linear-gradient);}.cls-2{fill:url(#linear-gradient-2);}.cls-3{fill:url(#linear-gradient-3);}.cls-4{fill:url(#linear-gradient-4);}.cls-5{fill:url(#linear-gradient-5);}.cls-6{fill:url(#linear-gradient-6);}.cls-7{fill:url(#linear-gradient-7);}.cls-8{fill:url(#linear-gradient-8);}.cls-9{fill:url(#linear-gradient-9);}.cls-10{fill:url(#linear-gradient-10);}.cls-11{fill:url(#linear-gradient-11);}.cls-12{fill:url(#linear-gradient-12);}.cls-13{fill:url(#linear-gradient-13);}.cls-14{fill:url(#linear-gradient-14);}.cls-15{fill:url(#linear-gradient-15);}.cls-16{fill:url(#linear-gradient-16);}</style><linearGradient id="linear-gradient" x1="24" y1="2.75" x2="24" y2="28.13" gradientUnits="userSpaceOnUse"><stop offset="0" stop-color="#eaecf7"/><stop offset="1" stop-color="#cdd3f1"/></linearGradient><linearGradient id="linear-gradient-2" x1="24" y1="18.013" x2="24" y2="29.727" gradientUnits="userSpaceOnUse"><stop offset="0" stop-color="#e2e5f4" stop-opacity="0"/><stop offset="1" stop-color="#9aa6e2"/></linearGradient><linearGradient id="linear-gradient-3" x1="9" y1="30.021" x2="9" y2="35.912" xlink:href="#linear-gradient"/><linearGradient id="linear-gradient-4" x1="9" y1="33.26" x2="9" y2="36.938" xlink:href="#linear-gradient-2"/><linearGradient id="linear-gradient-5" x1="19" y1="30.021" x2="19" y2="35.912" xlink:href="#linear-gradient"/><linearGradient id="linear-gradient-6" x1="19" y1="33.26" x2="19" y2="36.938" xlink:href="#linear-gradient-2"/><linearGradient id="linear-gradient-7" x1="29" y1="30.021" x2="29" y2="35.912" xlink:href="#linear-gradient"/><linearGradient id="linear-gradient-8" x1="29" y1="33.26" x2="29" y2="36.938" xlink:href="#linear-gradient-2"/><linearGradient id="linear-gradient-9" x1="39" y1="30.021" x2="39" y2="35.912" xlink:href="#linear-gradient"/><linearGradient id="linear-gradient-10" x1="39" y1="33.26" x2="39" y2="36.938" xlink:href="#linear-gradient-2"/><linearGradient id="linear-gradient-11" x1="14" y1="40.021" x2="14" y2="45.912" xlink:href="#linear-gradient"/><linearGradient id="linear-gradient-12" x1="14" y1="43.26" x2="14" y2="46.938" xlink:href="#linear-gradient-2"/><linearGradient id="linear-gradient-13" x1="24" y1="40.021" x2="24" y2="45.912" xlink:href="#linear-gradient"/><linearGradient id="linear-gradient-14" y1="43.26" x2="24" y2="46.938" xlink:href="#linear-gradient-2"/><linearGradient id="linear-gradient-15" x1="34" y1="40.021" x2="34" y2="45.912" xlink:href="#linear-gradient"/><linearGradient id="linear-gradient-16" x1="34" y1="43.26" x2="34" y2="46.938" xlink:href="#linear-gradient-2"/></defs><title>Weather Graadient</title><g id="Rainy"><path class="cls-1" d="M38,12c-.121,0-.238.013-.357.018a12.981,12.981,0,0,0-23.7-3.826A10,10,0,1,0,12,28H38a8,8,0,0,0,0-16Z"/><path class="cls-2" d="M2.2,16A10.005,10.005,0,0,0,12,28H38a7.99,7.99,0,0,0,6.921-12Z"/><path class="cls-3" d="M9,36a1,1,0,0,1-1-1V31a1,1,0,0,1,2,0v4A1,1,0,0,1,9,36Z"/><path class="cls-4" d="M8,33v2a1,1,0,0,0,2,0V33Z"/><path class="cls-5" d="M19,36a1,1,0,0,1-1-1V31a1,1,0,0,1,2,0v4A1,1,0,0,1,19,36Z"/><path class="cls-6" d="M18,33v2a1,1,0,0,0,2,0V33Z"/><path class="cls-7" d="M29,36a1,1,0,0,1-1-1V31a1,1,0,0,1,2,0v4A1,1,0,0,1,29,36Z"/><path class="cls-8" d="M28,33v2a1,1,0,0,0,2,0V33Z"/><path class="cls-9" d="M39,36a1,1,0,0,1-1-1V31a1,1,0,0,1,2,0v4A1,1,0,0,1,39,36Z"/><path class="cls-10" d="M38,33v2a1,1,0,0,0,2,0V33Z"/><path class="cls-11" d="M14,46a1,1,0,0,1-1-1V41a1,1,0,0,1,2,0v4A1,1,0,0,1,14,46Z"/><path class="cls-12" d="M13,43v2a1,1,0,0,0,2,0V43Z"/><path class="cls-13" d="M24,46a1,1,0,0,1-1-1V41a1,1,0,0,1,2,0v4A1,1,0,0,1,24,46Z"/><path class="cls-14" d="M23,43v2a1,1,0,0,0,2,0V43Z"/><path class="cls-15" d="M34,46a1,1,0,0,1-1-1V41a1,1,0,0,1,2,0v4A1,1,0,0,1,34,46Z"/><path class="cls-16" d="M33,43v2a1,1,0,0,0,2,0V43Z"/></g></svg>