<svg xmlns="http://www.w3.org/2000/svg" xmlns:xlink="http://www.w3.org/1999/xlink" viewBox="0 0 48 48"><defs><style>.cls-1{fill:url(#linear-gradient);}.cls-2{fill:url(#linear-gradient-2);}.cls-3{fill:url(#linear-gradient-3);}.cls-4{fill:url(#linear-gradient-4);}.cls-5{fill:url(#linear-gradient-5);}.cls-6{fill:url(#linear-gradient-6);}.cls-7{fill:url(#linear-gradient-7);}.cls-8{fill:url(#linear-gradient-8);}.cls-9{fill:url(#linear-gradient-9);}.cls-10{fill:url(#linear-gradient-10);}.cls-11{fill:url(#linear-gradient-11);}.cls-12{fill:url(#linear-gradient-12);}</style><linearGradient id="linear-gradient" x1="24" y1="2.75" x2="24" y2="28.13" gradientUnits="userSpaceOnUse"><stop offset="0" stop-color="#eaecf7"/><stop offset="1" stop-color="#cdd3f1"/></linearGradient><linearGradient id="linear-gradient-2" x1="24" y1="18.013" x2="24" y2="29.727" gradientUnits="userSpaceOnUse"><stop offset="0" stop-color="#e2e5f4" stop-opacity="0"/><stop offset="1" stop-color="#9aa6e2"/></linearGradient><linearGradient id="linear-gradient-3" x1="24" y1="32.25" x2="24" y2="36.834" xlink:href="#linear-gradient"/><linearGradient id="linear-gradient-4" x1="35" y1="32.25" x2="35" y2="36.834" xlink:href="#linear-gradient"/><linearGradient id="linear-gradient-5" x1="18" y1="41.25" x2="18" y2="45.834" xlink:href="#linear-gradient"/><linearGradient id="linear-gradient-6" x1="18" y1="43.879" x2="18" y2="46.629" xlink:href="#linear-gradient-2"/><linearGradient id="linear-gradient-7" x1="30" y1="41.25" x2="30" y2="45.834" xlink:href="#linear-gradient"/><linearGradient id="linear-gradient-8" x1="30" y1="43.879" x2="30" y2="46.629" xlink:href="#linear-gradient-2"/><linearGradient id="linear-gradient-9" x1="13" y1="32.25" x2="13" y2="36.834" xlink:href="#linear-gradient"/><linearGradient id="linear-gradient-10" x1="13" y1="34.879" x2="13" y2="37.629" xlink:href="#linear-gradient-2"/><linearGradient id="linear-gradient-11" y1="34.942" x2="24" y2="37.692" xlink:href="#linear-gradient-2"/><linearGradient id="linear-gradient-12" x1="35" y1="34.817" x2="35" y2="37.567" xlink:href="#linear-gradient-2"/></defs><title>Weather Graadient</title><g id="Hail"><path class="cls-1" d="M38,12c-.121,0-.238.013-.357.018a12.981,12.981,0,0,0-23.7-3.826A10,10,0,1,0,12,28H38a8,8,0,0,0,0-16Z"/><path class="cls-2" d="M2.2,16A10.005,10.005,0,0,0,12,28H38a7.99,7.99,0,0,0,6.921-12Z"/><path class="cls-3" d="M26,35a2,2,0,0,1-4,0c0-1.1,2-3,2-3S26,33.9,26,35Z"/><path class="cls-4" d="M37,35a2,2,0,0,1-4,0c0-1.1,2-3,2-3S37,33.9,37,35Z"/><path class="cls-5" d="M20,44a2,2,0,0,1-4,0c0-1.1,2-3,2-3S20,42.9,20,44Z"/><path class="cls-6" d="M16.354,43A2.152,2.152,0,0,0,16,44a2,2,0,0,0,4,0,2.152,2.152,0,0,0-.354-1Z"/><path class="cls-7" d="M32,44a2,2,0,0,1-4,0c0-1.1,2-3,2-3S32,42.9,32,44Z"/><path class="cls-8" d="M28.354,43A2.152,2.152,0,0,0,28,44a2,2,0,0,0,4,0,2.152,2.152,0,0,0-.354-1Z"/><path class="cls-9" d="M15,35a2,2,0,0,1-4,0c0-1.1,2-3,2-3S15,33.9,15,35Z"/><path class="cls-10" d="M11.354,34A2.152,2.152,0,0,0,11,35a2,2,0,0,0,4,0,2.152,2.152,0,0,0-.354-1Z"/><path class="cls-11" d="M22.354,34A2.152,2.152,0,0,0,22,35a2,2,0,0,0,4,0,2.152,2.152,0,0,0-.354-1Z"/><path class="cls-12" d="M33.354,34A2.152,2.152,0,0,0,33,35a2,2,0,0,0,4,0,2.152,2.152,0,0,0-.354-1Z"/></g></svg>