<svg xmlns="http://www.w3.org/2000/svg" xmlns:xlink="http://www.w3.org/1999/xlink" viewBox="0 0 48 48"><defs><style>.cls-1{fill:url(#linear-gradient);}.cls-2{fill:url(#linear-gradient-2);}.cls-3{fill:url(#linear-gradient-3);}.cls-4{fill:url(#linear-gradient-4);}.cls-5{fill:url(#linear-gradient-5);}.cls-6{fill:url(#linear-gradient-6);}.cls-7{fill:url(#linear-gradient-7);}.cls-8{fill:url(#linear-gradient-8);}.cls-9{fill:url(#linear-gradient-9);}.cls-10{fill:url(#linear-gradient-10);}</style><linearGradient id="linear-gradient" x1="28.781" y1="33.625" x2="28.781" y2="44.625" gradientUnits="userSpaceOnUse"><stop offset="0" stop-color="#eaecf7"/><stop offset="1" stop-color="#cdd3f1"/></linearGradient><linearGradient id="linear-gradient-2" x1="18.281" x2="18.281" xlink:href="#linear-gradient"/><linearGradient id="linear-gradient-3" x1="8.094" x2="8.094" xlink:href="#linear-gradient"/><linearGradient id="linear-gradient-4" x1="39.094" x2="39.094" xlink:href="#linear-gradient"/><linearGradient id="linear-gradient-5" x1="24" y1="4.667" x2="24" y2="29.167" xlink:href="#linear-gradient"/><linearGradient id="linear-gradient-6" x1="24" y1="20.256" x2="24" y2="33.006" gradientUnits="userSpaceOnUse"><stop offset="0" stop-color="#e2e5f4" stop-opacity="0"/><stop offset="1" stop-color="#9aa6e2"/></linearGradient><linearGradient id="linear-gradient-7" x1="39.343" y1="39.062" x2="39.343" y2="44.562" xlink:href="#linear-gradient-6"/><linearGradient id="linear-gradient-8" x1="29.031" y1="39.063" x2="29.031" y2="44.563" xlink:href="#linear-gradient-6"/><linearGradient id="linear-gradient-9" x1="18.531" y1="39.063" x2="18.531" y2="44.563" xlink:href="#linear-gradient-6"/><linearGradient id="linear-gradient-10" x1="8.343" y1="39.063" x2="8.343" y2="44.563" xlink:href="#linear-gradient-6"/></defs><title>Weather Graadient</title><g id="Smog"><path class="cls-1" d="M29.895,38.793a2.978,2.978,0,0,1,.967,2.451,4.865,4.865,0,0,1-2.119,3.088A1,1,0,0,1,27.63,42.67c.3-.205,1.176-.941,1.241-1.626a1.008,1.008,0,0,0-.391-.837A4.835,4.835,0,0,1,26.687,37a4.835,4.835,0,0,1,1.793-3.207,1,1,0,0,1,1.414,1.414C28.286,36.815,28.286,37.185,29.895,38.793Z"/><path class="cls-2" d="M19.395,38.793a2.978,2.978,0,0,1,.967,2.451,4.865,4.865,0,0,1-2.119,3.088A1,1,0,0,1,17.13,42.67c.3-.205,1.176-.941,1.241-1.626a1.008,1.008,0,0,0-.391-.837A4.835,4.835,0,0,1,16.187,37a4.835,4.835,0,0,1,1.793-3.207,1,1,0,0,1,1.414,1.414C17.786,36.815,17.786,37.185,19.395,38.793Z"/><path class="cls-3" d="M9.207,38.793a2.978,2.978,0,0,1,.967,2.451,4.865,4.865,0,0,1-2.119,3.088A1,1,0,0,1,6.942,42.67c.3-.205,1.176-.941,1.241-1.626a1.008,1.008,0,0,0-.391-.837A4.835,4.835,0,0,1,6,37a4.835,4.835,0,0,1,1.793-3.207,1,1,0,0,1,1.414,1.414C7.6,36.815,7.6,37.185,9.207,38.793Z"/><path class="cls-4" d="M40.207,38.793a2.978,2.978,0,0,1,.967,2.451,4.865,4.865,0,0,1-2.119,3.088,1,1,0,0,1-1.112-1.662c.3-.205,1.176-.941,1.241-1.626a1.008,1.008,0,0,0-.391-.837A4.835,4.835,0,0,1,37,37a4.835,4.835,0,0,1,1.793-3.207,1,1,0,0,1,1.414,1.414C38.6,36.815,38.6,37.185,40.207,38.793Z"/><path class="cls-5" d="M38,14c-.121,0-.238.013-.357.018a12.981,12.981,0,0,0-23.7-3.826A10,10,0,1,0,12,30H38a8,8,0,0,0,0-16Z"/><path class="cls-6" d="M2,20A10,10,0,0,0,12,30H38a7.972,7.972,0,0,0,7.738-10Z"/><path class="cls-7" d="M37.74,39a9.877,9.877,0,0,0,1.053,1.207,1.008,1.008,0,0,1,.391.837c-.065.685-.939,1.421-1.241,1.626a1,1,0,0,0,1.112,1.662,4.865,4.865,0,0,0,2.119-3.088A2.925,2.925,0,0,0,40.392,39Z"/><path class="cls-8" d="M27.427,39a9.877,9.877,0,0,0,1.053,1.207,1.008,1.008,0,0,1,.391.837c-.065.685-.939,1.421-1.241,1.626a1,1,0,0,0,1.112,1.662,4.865,4.865,0,0,0,2.119-3.088A2.925,2.925,0,0,0,30.08,39Z"/><path class="cls-9" d="M16.927,39a9.877,9.877,0,0,0,1.053,1.207,1.008,1.008,0,0,1,.391.837c-.065.685-.939,1.421-1.241,1.626a1,1,0,0,0,1.112,1.662,4.865,4.865,0,0,0,2.119-3.088A2.925,2.925,0,0,0,19.58,39Z"/><path class="cls-10" d="M6.74,39a9.877,9.877,0,0,0,1.053,1.207,1.008,1.008,0,0,1,.391.837c-.065.685-.939,1.421-1.241,1.626a1,1,0,0,0,1.112,1.662,4.865,4.865,0,0,0,2.119-3.088A2.925,2.925,0,0,0,9.392,39Z"/></g></svg>