<svg xmlns="http://www.w3.org/2000/svg" xmlns:xlink="http://www.w3.org/1999/xlink" viewBox="0 0 48 48"><defs><style>.cls-1{fill:url(#linear-gradient);}.cls-2{fill:url(#linear-gradient-2);}.cls-3{fill:url(#linear-gradient-3);}.cls-4{fill:url(#linear-gradient-4);}</style><linearGradient id="linear-gradient" x1="24" y1="5.125" x2="24" y2="12.188" gradientUnits="userSpaceOnUse"><stop offset="0" stop-color="#eaecf7"/><stop offset="1" stop-color="#cdd3f1"/></linearGradient><linearGradient id="linear-gradient-2" y1="15.563" x2="24" y2="22.437" xlink:href="#linear-gradient"/><linearGradient id="linear-gradient-3" y1="25.063" x2="24" y2="32.376" xlink:href="#linear-gradient"/><linearGradient id="linear-gradient-4" y1="35.313" x2="24" y2="42.323" xlink:href="#linear-gradient"/></defs><title>Weather Graadient</title><g id="Fog"><path class="cls-1" d="M46,12a14.216,14.216,0,0,1-7.814-2.122A12.36,12.36,0,0,0,31.33,8a12.36,12.36,0,0,0-6.856,1.878A14.216,14.216,0,0,1,16.66,12,14.2,14.2,0,0,1,8.851,9.878,12.346,12.346,0,0,0,2,8,1,1,0,0,1,2,6,14.2,14.2,0,0,1,9.809,8.122,12.346,12.346,0,0,0,16.66,10a12.36,12.36,0,0,0,6.856-1.878A14.216,14.216,0,0,1,31.33,6a14.216,14.216,0,0,1,7.814,2.122A12.36,12.36,0,0,0,46,10a1,1,0,0,1,0,2Z"/><path class="cls-2" d="M46,22a14.216,14.216,0,0,1-7.814-2.122A12.36,12.36,0,0,0,31.33,18a12.36,12.36,0,0,0-6.856,1.878A14.216,14.216,0,0,1,16.66,22a14.2,14.2,0,0,1-7.809-2.122A12.346,12.346,0,0,0,2,18a1,1,0,0,1,0-2,14.2,14.2,0,0,1,7.809,2.122A12.346,12.346,0,0,0,16.66,20a12.36,12.36,0,0,0,6.856-1.878A14.216,14.216,0,0,1,31.33,16a14.216,14.216,0,0,1,7.814,2.122A12.36,12.36,0,0,0,46,20a1,1,0,0,1,0,2Z"/><path class="cls-3" d="M46,32a14.216,14.216,0,0,1-7.814-2.122A12.36,12.36,0,0,0,31.33,28a12.36,12.36,0,0,0-6.856,1.878A14.216,14.216,0,0,1,16.66,32a14.2,14.2,0,0,1-7.809-2.122A12.346,12.346,0,0,0,2,28a1,1,0,0,1,0-2,14.2,14.2,0,0,1,7.809,2.122A12.346,12.346,0,0,0,16.66,30a12.36,12.36,0,0,0,6.856-1.878A14.216,14.216,0,0,1,31.33,26a14.216,14.216,0,0,1,7.814,2.122A12.36,12.36,0,0,0,46,30a1,1,0,0,1,0,2Z"/><path class="cls-4" d="M46,42a14.216,14.216,0,0,1-7.814-2.122A12.36,12.36,0,0,0,31.33,38a12.36,12.36,0,0,0-6.856,1.878A14.216,14.216,0,0,1,16.66,42a14.2,14.2,0,0,1-7.809-2.122A12.346,12.346,0,0,0,2,38a1,1,0,0,1,0-2,14.2,14.2,0,0,1,7.809,2.122A12.346,12.346,0,0,0,16.66,40a12.36,12.36,0,0,0,6.856-1.878A14.216,14.216,0,0,1,31.33,36a14.216,14.216,0,0,1,7.814,2.122A12.36,12.36,0,0,0,46,40a1,1,0,0,1,0,2Z"/></g></svg>