<svg xmlns="http://www.w3.org/2000/svg" xmlns:xlink="http://www.w3.org/1999/xlink" viewBox="0 0 48 48"><defs><style>.cls-1{fill:url(#linear-gradient);}.cls-2{fill:url(#linear-gradient-2);}.cls-3{fill:url(#linear-gradient-3);}.cls-4{fill:url(#linear-gradient-4);}.cls-5{fill:url(#linear-gradient-5);}</style><linearGradient id="linear-gradient" x1="24.002" y1="7.75" x2="24.002" y2="43.959" gradientUnits="userSpaceOnUse"><stop offset="0" stop-color="#e28b5a"/><stop offset="1" stop-color="#b35e3e"/></linearGradient><linearGradient id="linear-gradient-2" x1="23.045" y1="31.288" x2="23.045" y2="45.215" gradientUnits="userSpaceOnUse"><stop offset="0" stop-color="#b35e3e" stop-opacity="0"/><stop offset="1" stop-color="#96492d"/></linearGradient><linearGradient id="linear-gradient-3" x1="24" y1="2.083" x2="24" y2="12.259" xlink:href="#linear-gradient"/><linearGradient id="linear-gradient-4" x1="24.5" y1="16.833" x2="24.5" y2="25.986" gradientUnits="userSpaceOnUse"><stop offset="0" stop-color="#eaecf7"/><stop offset="1" stop-color="#cdd3f1"/></linearGradient><linearGradient id="linear-gradient-5" x1="22.5" y1="35.25" x2="22.5" y2="42.268" xlink:href="#linear-gradient-4"/></defs><title>Weather Graadient</title><g id="Tornado"><path class="cls-1" d="M26,46S15,40,16,28c.917-11.007-9-12-9-21H41s.338,10.395-6,18C30,31,24,37,26,46Z"/><path class="cls-2" d="M30.088,31H16c.838,10,10,15,10,15C24.655,39.946,26.933,35.252,30.088,31Z"/><ellipse class="cls-3" cx="24" cy="7" rx="17" ry="5"/><path class="cls-4" d="M38.889,18.282c-.236.606-.5,1.216-.793,1.826a.957.957,0,0,0,.2.086c2.527.555,3.372,1.093,3.629,1.315C40.974,22.422,35.174,24,24.5,24,13.809,24,8.008,22.417,7.074,21.506c.424-.377,2.1-1.19,6.478-1.812a.98.98,0,0,0,.421-.175,20.481,20.481,0,0,0-1.253-1.72C5.831,18.852,5,20.408,5,21.5,5,25.874,22.5,26,24.5,26S44,25.874,44,21.5C44,20.072,42.415,19.077,38.889,18.282Z"/><path class="cls-5" d="M27.388,35.351a18.947,18.947,0,0,0-.793,1.854.956.956,0,0,0,.219.077c2.61.365,3.75.935,4.1,1.223C30.235,39.1,27.185,40,22.5,40s-7.732-.9-8.413-1.494a8.225,8.225,0,0,1,3.448-1.121.968.968,0,0,0,.247-.1,17.764,17.764,0,0,1-.791-1.836C13.687,36.045,12,37.067,12,38.5c0,3.4,9.425,3.5,10.5,3.5S33,41.9,33,38.5C33,36.968,31.1,35.912,27.388,35.351Z"/></g></svg>