<svg xmlns="http://www.w3.org/2000/svg" xmlns:xlink="http://www.w3.org/1999/xlink" viewBox="0 0 48 48"><defs><style>.cls-1{fill:url(#linear-gradient);}.cls-2{fill:url(#linear-gradient-2);}.cls-3{fill:url(#linear-gradient-3);}.cls-4{fill:url(#linear-gradient-4);}.cls-5{fill:url(#linear-gradient-5);}.cls-6{fill:url(#linear-gradient-6);}.cls-7{fill:url(#linear-gradient-7);}.cls-8{fill:url(#linear-gradient-8);}.cls-9{fill:url(#linear-gradient-9);}.cls-10{fill:url(#linear-gradient-10);}.cls-11{fill:url(#linear-gradient-11);}.cls-12{fill:url(#linear-gradient-12);}.cls-13{fill:url(#linear-gradient-13);}.cls-14{fill:url(#linear-gradient-14);}</style><linearGradient id="linear-gradient" x1="35" y1="13.188" x2="35" y2="25.894" gradientUnits="userSpaceOnUse"><stop offset="0" stop-color="#9aa6e2"/><stop offset="1" stop-color="#7283d6"/></linearGradient><linearGradient id="linear-gradient-2" x1="35" y1="21.072" x2="35" y2="27.083" gradientUnits="userSpaceOnUse"><stop offset="0" stop-color="#7283d6" stop-opacity="0"/><stop offset="1" stop-color="#4d62cb"/></linearGradient><linearGradient id="linear-gradient-3" x1="26" y1="22.625" x2="26" y2="45.836" gradientUnits="userSpaceOnUse"><stop offset="0" stop-color="#eaecf7"/><stop offset="1" stop-color="#cdd3f1"/></linearGradient><linearGradient id="linear-gradient-4" x1="9.808" y1="9.473" x2="16.058" y2="16.379" gradientUnits="userSpaceOnUse"><stop offset="0" stop-color="#ffca4f"/><stop offset="1" stop-color="#f7ae30"/></linearGradient><linearGradient id="linear-gradient-5" x1="13" y1="1.938" x2="13" y2="5.719" xlink:href="#linear-gradient-4"/><linearGradient id="linear-gradient-6" x1="13" y1="23.938" x2="13" y2="20.029" xlink:href="#linear-gradient-4"/><linearGradient id="linear-gradient-7" x1="2" y1="13" x2="6" y2="13" xlink:href="#linear-gradient-4"/><linearGradient id="linear-gradient-8" x1="20" y1="13" x2="24" y2="13" gradientUnits="userSpaceOnUse"><stop offset="0" stop-color="#f7ae30"/><stop offset="1" stop-color="#ffca4f"/></linearGradient><linearGradient id="linear-gradient-9" x1="5.194" y1="20.757" x2="7.976" y2="18.07" xlink:href="#linear-gradient-4"/><linearGradient id="linear-gradient-10" x1="20.742" y1="5.242" x2="17.992" y2="8.023" xlink:href="#linear-gradient-4"/><linearGradient id="linear-gradient-11" x1="20.601" y1="20.586" x2="18.007" y2="18.024" xlink:href="#linear-gradient-4"/><linearGradient id="linear-gradient-12" x1="5.265" y1="5.174" x2="8.108" y2="8.205" xlink:href="#linear-gradient-4"/><linearGradient id="linear-gradient-13" x1="13.163" y1="13.171" x2="16.303" y2="16.499" gradientUnits="userSpaceOnUse"><stop offset="0" stop-color="#ffca4f" stop-opacity="0"/><stop offset="1" stop-color="#f4901f"/></linearGradient><linearGradient id="linear-gradient-14" x1="26.006" y1="37.234" x2="26.006" y2="47.336" gradientUnits="userSpaceOnUse"><stop offset="0" stop-color="#e2e5f4" stop-opacity="0"/><stop offset="1" stop-color="#9aa6e2"/></linearGradient></defs><title>Weather Graadient</title><g id="Sunny_Cloudy" data-name="Sunny Cloudy"><path class="cls-1" d="M42,18c-.06,0-.119.006-.179.009A6.49,6.49,0,0,0,29.97,16.1,5,5,0,1,0,29,26H42a4,4,0,0,0,0-8Z"/><path class="cls-2" d="M24,21a5,5,0,0,0,5,5H42a3.952,3.952,0,0,0,3.859-5Z"/><path class="cls-3" d="M38.727,31.231c-.11,0-.216.012-.325.017a11.739,11.739,0,0,0-21.547-3.532,8.993,8.993,0,0,0-1.764-.177,9.232,9.232,0,0,0,0,18.462H38.727a7.385,7.385,0,0,0,0-14.769Z"/><circle class="cls-4" cx="13" cy="13" r="4"/><path class="cls-5" d="M13,6a1,1,0,0,1-1-1V3a1,1,0,0,1,2,0V5A1,1,0,0,1,13,6Z"/><path class="cls-6" d="M13,24a1,1,0,0,1-1-1V21a1,1,0,0,1,2,0v2A1,1,0,0,1,13,24Z"/><path class="cls-7" d="M5,14H3a1,1,0,0,1,0-2H5a1,1,0,0,1,0,2Z"/><path class="cls-8" d="M23,14H21a1,1,0,0,1,0-2h2a1,1,0,0,1,0,2Z"/><path class="cls-9" d="M5.929,21.071a1,1,0,0,1-.707-1.707L6.636,17.95A1,1,0,0,1,8.05,19.364L6.636,20.778A1,1,0,0,1,5.929,21.071Z"/><path class="cls-10" d="M18.657,8.343a1,1,0,0,1-.707-1.707l1.415-1.414a1,1,0,0,1,1.414,1.414L19.364,8.05A1,1,0,0,1,18.657,8.343Z"/><path class="cls-11" d="M20.071,21.071a1,1,0,0,1-.707-.293L17.95,19.364a1,1,0,0,1,1.414-1.414l1.415,1.414a1,1,0,0,1-.707,1.707Z"/><path class="cls-12" d="M7.343,8.343a1,1,0,0,1-.707-.293L5.222,6.636A1,1,0,0,1,6.636,5.222L8.05,6.636a1,1,0,0,1-.707,1.707Z"/><path class="cls-13" d="M15.828,10.172l-5.657,5.657a4,4,0,1,0,5.657-5.657Z"/><path class="cls-14" d="M6.011,37a9.152,9.152,0,0,0,9.079,9H38.727A7.329,7.329,0,0,0,46,38.615,7.5,7.5,0,0,0,45.82,37Z"/></g></svg>