<svg xmlns="http://www.w3.org/2000/svg" xmlns:xlink="http://www.w3.org/1999/xlink" viewBox="0 0 48 48"><defs><style>.cls-1{fill:url(#linear-gradient);}.cls-2{fill:url(#linear-gradient-2);}.cls-3{fill:url(#linear-gradient-3);}.cls-4{fill:url(#linear-gradient-4);}</style><linearGradient id="linear-gradient" x1="29" y1="5.625" x2="29" y2="22.058" gradientUnits="userSpaceOnUse"><stop offset="0" stop-color="#9aa6e2"/><stop offset="1" stop-color="#7283d6"/></linearGradient><linearGradient id="linear-gradient-2" x1="29" y1="14.593" x2="29" y2="23.531" gradientUnits="userSpaceOnUse"><stop offset="0" stop-color="#7283d6" stop-opacity="0"/><stop offset="1" stop-color="#4d62cb"/></linearGradient><linearGradient id="linear-gradient-3" x1="24" y1="16.667" x2="24" y2="41.167" gradientUnits="userSpaceOnUse"><stop offset="0" stop-color="#eaecf7"/><stop offset="1" stop-color="#cdd3f1"/></linearGradient><linearGradient id="linear-gradient-4" x1="24" y1="32.256" x2="24" y2="45.006" gradientUnits="userSpaceOnUse"><stop offset="0" stop-color="#e2e5f4" stop-opacity="0"/><stop offset="1" stop-color="#9aa6e2"/></linearGradient></defs><title>Weather Graadient</title><g id="Cloudy"><path class="cls-1" d="M20.091,11.818c.077,0,.151.008.227.011A8.261,8.261,0,0,1,35.4,9.395,6.363,6.363,0,1,1,36.636,22H20.091a5.091,5.091,0,0,1,0-10.182Z"/><path class="cls-2" d="M16.866,13a5.071,5.071,0,0,0,3.225,9H36.636a6.355,6.355,0,0,0,5.787-9Z"/><path class="cls-3" d="M38,26c-.121,0-.238.013-.357.018a12.981,12.981,0,0,0-23.7-3.826A10,10,0,1,0,12,42H38a8,8,0,0,0,0-16Z"/><path class="cls-4" d="M2,32A10,10,0,0,0,12,42H38a7.972,7.972,0,0,0,7.738-10Z"/></g></svg>