<svg xmlns="http://www.w3.org/2000/svg" xmlns:xlink="http://www.w3.org/1999/xlink" viewBox="0 0 48 48"><defs><style>.cls-1{fill:url(#linear-gradient);}.cls-2{fill:url(#linear-gradient-2);}.cls-3{fill:url(#linear-gradient-3);}.cls-4{fill:url(#linear-gradient-4);}</style><linearGradient id="linear-gradient" x1="35" y1="24.5" x2="35" y2="45.746" gradientUnits="userSpaceOnUse"><stop offset="0" stop-color="#ffca4f"/><stop offset="1" stop-color="#f7ae30"/></linearGradient><linearGradient id="linear-gradient-2" x1="19" y1="3.375" x2="19" y2="45.74" gradientUnits="userSpaceOnUse"><stop offset="0" stop-color="#ff4343"/><stop offset="1" stop-color="#e40000"/></linearGradient><linearGradient id="linear-gradient-3" x1="17.64" y1="25.656" x2="17.64" y2="45.876" gradientUnits="userSpaceOnUse"><stop offset="0" stop-color="#ff4343" stop-opacity="0"/><stop offset="1" stop-color="#af0000"/></linearGradient><linearGradient id="linear-gradient-4" x1="34.433" y1="35.25" x2="34.433" y2="45.873" gradientUnits="userSpaceOnUse"><stop offset="0" stop-color="#ffca4f" stop-opacity="0"/><stop offset="1" stop-color="#f4901f"/></linearGradient></defs><title>Weather Graadient</title><g id="Bolt"><polygon class="cls-1" points="37.5 24 35.5 33.308 41 33.308 32.5 46 34.5 36.692 29 36.692 37.5 24"/><polygon class="cls-2" points="24 2 20 21 31 21 14 46 18 27 7 27 24 2"/><polygon class="cls-3" points="28.28 25 8.36 25 7 27 18 27 14 46 28.28 25"/><polygon class="cls-4" points="39.867 35 30.133 35 29 36.692 34.5 36.692 32.5 46 39.867 35"/></g></svg>