<svg xmlns="http://www.w3.org/2000/svg" xmlns:xlink="http://www.w3.org/1999/xlink" viewBox="0 0 48 48"><defs><style>.cls-1{fill:url(#linear-gradient);}.cls-2{fill:url(#linear-gradient-2);}.cls-3{fill:url(#linear-gradient-3);}.cls-4{fill:url(#linear-gradient-4);}.cls-5{fill:url(#linear-gradient-5);}.cls-6{fill:url(#linear-gradient-6);}.cls-7{fill:url(#linear-gradient-7);}.cls-8{fill:url(#linear-gradient-8);}</style><linearGradient id="linear-gradient" x1="31" y1="2.667" x2="31" y2="46.667" gradientUnits="userSpaceOnUse"><stop offset="0" stop-color="#eaecf7"/><stop offset="1" stop-color="#cdd3f1"/></linearGradient><linearGradient id="linear-gradient-2" x1="31.003" y1="35.167" x2="31.003" y2="47.584" gradientUnits="userSpaceOnUse"><stop offset="0" stop-color="#e2e5f4" stop-opacity="0"/><stop offset="1" stop-color="#9aa6e2"/></linearGradient><linearGradient id="linear-gradient-3" x1="31.001" y1="1.417" x2="31.001" y2="37.876" gradientUnits="userSpaceOnUse"><stop offset="0" stop-color="#9aa6e2"/><stop offset="1" stop-color="#e2e5f4" stop-opacity="0"/></linearGradient><linearGradient id="linear-gradient-4" x1="31.001" y1="6.458" x2="31.001" y2="16.964" xlink:href="#linear-gradient"/><linearGradient id="linear-gradient-5" x1="31.001" y1="16.5" x2="31.001" y2="40.813" gradientUnits="userSpaceOnUse"><stop offset="0" stop-color="#ff4343"/><stop offset="1" stop-color="#e40000"/></linearGradient><linearGradient id="linear-gradient-6" x1="31.001" y1="32.192" x2="31.001" y2="43.25" gradientUnits="userSpaceOnUse"><stop offset="0" stop-color="#ff4343" stop-opacity="0"/><stop offset="1" stop-color="#af0000"/></linearGradient><linearGradient id="linear-gradient-7" x1="12.5" y1="7" x2="12.5" y2="24.065" gradientUnits="userSpaceOnUse"><stop offset="0" stop-color="#14a5ff"/><stop offset="1" stop-color="#037cff"/></linearGradient><linearGradient id="linear-gradient-8" x1="12.5" y1="17" x2="12.5" y2="24.027" gradientUnits="userSpaceOnUse"><stop offset="0" stop-color="#037cff" stop-opacity="0"/><stop offset="1" stop-color="#0063cc"/></linearGradient></defs><title>Weather Graadient</title><g id="Condensation"><path class="cls-1" d="M37,25.787V8a6,6,0,0,0-6-6h0a6,6,0,0,0-6,6V25.787a11,11,0,1,0,12,0Z"/><path class="cls-2" d="M20.075,36.3A11,11,0,0,0,42,35H20.007A11.346,11.346,0,0,0,20.075,36.3Z"/><path class="cls-3" d="M31,43a8.471,8.471,0,0,1-.927-.052,8.109,8.109,0,0,1-7.018-6.992A8,8,0,0,1,26.64,28.3L28,27.411V8a3,3,0,0,1,6,0V27.411l1.36.888A8,8,0,0,1,31,43Z"/><path class="cls-4" d="M31,42a7.428,7.428,0,0,1-.817-.046,7.088,7.088,0,0,1-6.135-6.112,7,7,0,0,1,3.137-6.705L29,27.953V8a2,2,0,0,1,4,0V27.953l1.814,1.184A7,7,0,0,1,31,42Z"/><path class="cls-5" d="M31,42a7.428,7.428,0,0,1-.817-.046,7.088,7.088,0,0,1-6.135-6.112,7,7,0,0,1,3.137-6.705L29,27.953V16h4V27.953l1.814,1.184A7,7,0,0,1,31,42Z"/><path class="cls-6" d="M24.682,32a6.989,6.989,0,0,0,5.5,9.954A7.428,7.428,0,0,0,31,42,6.975,6.975,0,0,0,37.31,32Z"/><path class="cls-7" d="M19,17.5C19,13.91,12.5,7,12.5,7S6,13.91,6,17.5a6.5,6.5,0,0,0,13,0Z"/><path class="cls-8" d="M6.051,17A3.7,3.7,0,0,0,6,17.5a6.5,6.5,0,0,0,13,0,3.7,3.7,0,0,0-.051-.5Z"/></g></svg>