<svg xmlns="http://www.w3.org/2000/svg" xmlns:xlink="http://www.w3.org/1999/xlink" viewBox="0 0 48 48"><defs><style>.cls-1{fill:url(#linear-gradient);}.cls-2{fill:url(#linear-gradient-2);}.cls-3{fill:url(#linear-gradient-3);}.cls-4{fill:url(#linear-gradient-4);}.cls-5{fill:url(#linear-gradient-5);}.cls-6{fill:url(#linear-gradient-6);}</style><linearGradient id="linear-gradient" x1="24" y1="3.333" x2="24" y2="44.675" gradientUnits="userSpaceOnUse"><stop offset="0" stop-color="#14a5ff"/><stop offset="1" stop-color="#037cff"/></linearGradient><linearGradient id="linear-gradient-2" x1="24" y1="-0.729" x2="24" y2="32.833" gradientUnits="userSpaceOnUse"><stop offset="0" stop-color="#47b8ff"/><stop offset="1" stop-color="#037cff" stop-opacity="0"/></linearGradient><linearGradient id="linear-gradient-3" x1="24" y1="29.515" x2="24" y2="45.488" gradientUnits="userSpaceOnUse"><stop offset="0" stop-color="#037cff" stop-opacity="0"/><stop offset="1" stop-color="#0063cc"/></linearGradient><linearGradient id="linear-gradient-4" x1="19" y1="22" x2="19" y2="38.292" gradientUnits="userSpaceOnUse"><stop offset="0" stop-color="#eaecf7"/><stop offset="1" stop-color="#cdd3f1"/></linearGradient><linearGradient id="linear-gradient-5" x1="29" x2="29" y2="38.292" xlink:href="#linear-gradient-4"/><linearGradient id="linear-gradient-6" x1="24" x2="24" y2="38.292" xlink:href="#linear-gradient-4"/></defs><title>Weather Graadient</title><g id="Humidity"><path class="cls-1" d="M41,29A17,17,0,0,1,7,29C7,19.611,23,2,24,2S41,19.611,41,29Z"/><path class="cls-2" d="M24,45A16.018,16.018,0,0,1,8,29C8,20.906,21.208,5.56,24,3.188,26.792,5.56,40,20.906,40,29A16.018,16.018,0,0,1,24,45Z"/><path class="cls-3" d="M24,46A17,17,0,0,0,41,29H7A17,17,0,0,0,24,46Z"/><path class="cls-4" d="M22,25a3,3,0,1,0-3,3A3,3,0,0,0,22,25Zm-3,1a1,1,0,1,1,1-1A1,1,0,0,1,19,26Z"/><path class="cls-5" d="M29,32a3,3,0,1,0,3,3A3,3,0,0,0,29,32Zm0,4a1,1,0,1,1,1-1A1,1,0,0,1,29,36Z"/><path class="cls-6" d="M28.5,22.132a1,1,0,0,0-1.364.372l-8,14a1,1,0,1,0,1.736.992l8-14A1,1,0,0,0,28.5,22.132Z"/></g></svg>