<svg xmlns="http://www.w3.org/2000/svg" xmlns:xlink="http://www.w3.org/1999/xlink" viewBox="0 0 48 48"><defs><style>.cls-1{fill:url(#linear-gradient);}.cls-2{fill:url(#linear-gradient-2);}.cls-3{fill:url(#linear-gradient-3);}.cls-4{fill:url(#linear-gradient-4);}.cls-5{fill:url(#linear-gradient-5);}.cls-6{fill:url(#linear-gradient-6);}.cls-7{fill:url(#linear-gradient-7);}.cls-8{fill:url(#linear-gradient-8);}</style><linearGradient id="linear-gradient" x1="24" y1="5.75" x2="24" y2="31.13" gradientUnits="userSpaceOnUse"><stop offset="0" stop-color="#eaecf7"/><stop offset="1" stop-color="#cdd3f1"/></linearGradient><linearGradient id="linear-gradient-2" x1="24" y1="21.013" x2="24" y2="32.727" gradientUnits="userSpaceOnUse"><stop offset="0" stop-color="#e2e5f4" stop-opacity="0"/><stop offset="1" stop-color="#9aa6e2"/></linearGradient><linearGradient id="linear-gradient-3" x1="24" y1="35.083" x2="24" y2="42.87" xlink:href="#linear-gradient"/><linearGradient id="linear-gradient-4" x1="12.402" y1="35.083" x2="12.402" y2="42.87" xlink:href="#linear-gradient"/><linearGradient id="linear-gradient-5" x1="35.598" y1="35.083" x2="35.598" y2="42.87" xlink:href="#linear-gradient"/><linearGradient id="linear-gradient-6" x1="12.402" y1="39.042" x2="12.402" y2="43.626" xlink:href="#linear-gradient-2"/><linearGradient id="linear-gradient-7" y1="39.042" x2="24" y2="43.709" xlink:href="#linear-gradient-2"/><linearGradient id="linear-gradient-8" x1="35.598" y1="39.042" x2="35.598" y2="43.708" xlink:href="#linear-gradient-2"/></defs><title>Weather Graadient</title><g id="Snowy"><path class="cls-1" d="M38,15c-.121,0-.238.013-.357.018a12.981,12.981,0,0,0-23.7-3.826A10,10,0,1,0,12,31H38a8,8,0,0,0,0-16Z"/><path class="cls-2" d="M2.2,19A10.005,10.005,0,0,0,12,31H38a7.99,7.99,0,0,0,6.921-12Z"/><path class="cls-3" d="M27.464,37a1,1,0,0,0-1.366-.366l-1.1.634V36a1,1,0,0,0-2,0v1.268l-1.1-.634a1,1,0,1,0-1,1.732L22,39l-1.1.634a1,1,0,0,0,1,1.732l1.1-.634V42a1,1,0,0,0,2,0V40.732l1.1.634a1,1,0,0,0,1-1.732L26,39l1.1-.634A1,1,0,0,0,27.464,37Z"/><path class="cls-4" d="M15.866,37a1,1,0,0,0-1.366-.366l-1.1.634V36a1,1,0,0,0-2,0v1.268l-1.1-.634a1,1,0,1,0-1,1.732L10.4,39l-1.1.634a1,1,0,0,0,1,1.732l1.1-.634V42a1,1,0,0,0,2,0V40.732l1.1.634a1,1,0,1,0,1-1.732L14.4,39l1.1-.634A1,1,0,0,0,15.866,37Z"/><path class="cls-5" d="M38.7,39.634,37.6,39l1.1-.634a1,1,0,0,0-1-1.732l-1.1.634V36a1,1,0,0,0-2,0v1.268l-1.1-.634a1,1,0,1,0-1,1.732L33.6,39l-1.1.634a1,1,0,0,0,1,1.732l1.1-.634V42a1,1,0,0,0,2,0V40.732l1.1.634a1,1,0,0,0,1-1.732Z"/><path class="cls-6" d="M15.5,39.634,14.4,39h-4l-1.1.634a1,1,0,0,0,1,1.732l1.1-.634V42a1,1,0,0,0,2,0V40.732l1.1.634a1,1,0,1,0,1-1.732Z"/><path class="cls-7" d="M27.1,39.634,26,39H22l-1.1.634a1,1,0,0,0,1,1.732l1.1-.634V42a1,1,0,0,0,2,0V40.732l1.1.634a1,1,0,0,0,1-1.732Z"/><path class="cls-8" d="M38.7,39.634,37.6,39h-4l-1.1.634a1,1,0,0,0,1,1.732l1.1-.634V42a1,1,0,0,0,2,0V40.732l1.1.634a1,1,0,0,0,1-1.732Z"/></g></svg>