<svg xmlns="http://www.w3.org/2000/svg" xmlns:xlink="http://www.w3.org/1999/xlink" viewBox="0 0 48 48"><defs><style>.cls-1{fill:url(#linear-gradient);}.cls-2{fill:url(#linear-gradient-2);}.cls-3{fill:url(#linear-gradient-3);}.cls-4{fill:url(#linear-gradient-4);}.cls-5{fill:url(#linear-gradient-5);}.cls-6{fill:url(#linear-gradient-6);}.cls-7{fill:url(#linear-gradient-7);}.cls-8{fill:url(#linear-gradient-8);}.cls-9{fill:url(#linear-gradient-9);}.cls-10{fill:url(#linear-gradient-10);}.cls-11{fill:url(#linear-gradient-11);}</style><linearGradient id="linear-gradient" x1="24" y1="4.094" x2="24" y2="9.019" gradientUnits="userSpaceOnUse"><stop offset="0" stop-color="#ffca4f"/><stop offset="1" stop-color="#f7ae30"/></linearGradient><linearGradient id="linear-gradient-2" x1="3.042" y1="25" x2="7.993" y2="25" xlink:href="#linear-gradient"/><linearGradient id="linear-gradient-3" x1="44.969" y1="25" x2="40.03" y2="25" xlink:href="#linear-gradient"/><linearGradient id="linear-gradient-4" x1="38.774" y1="10.211" x2="35.274" y2="13.743" xlink:href="#linear-gradient"/><linearGradient id="linear-gradient-5" x1="9.289" y1="10.304" x2="12.727" y2="13.71" xlink:href="#linear-gradient"/><linearGradient id="linear-gradient-6" y1="13.667" x2="24" y2="31.676" xlink:href="#linear-gradient"/><linearGradient id="linear-gradient-7" x1="24" y1="10.346" x2="24" y2="24.334" gradientUnits="userSpaceOnUse"><stop offset="0" stop-color="#ffd980"/><stop offset="1" stop-color="#ffca4f" stop-opacity="0"/></linearGradient><linearGradient id="linear-gradient-8" x1="24" y1="22.351" x2="24" y2="31.83" gradientUnits="userSpaceOnUse"><stop offset="0" stop-color="#ffca4f" stop-opacity="0"/><stop offset="1" stop-color="#f4901f"/></linearGradient><linearGradient id="linear-gradient-9" x1="23.994" y1="40.5" x2="23.994" y2="44.33" gradientUnits="userSpaceOnUse"><stop offset="0" stop-color="#14a5ff"/><stop offset="1" stop-color="#037cff"/></linearGradient><linearGradient id="linear-gradient-10" x1="24" y1="28.75" x2="24" y2="33.488" xlink:href="#linear-gradient-9"/><linearGradient id="linear-gradient-11" x1="23.996" y1="35.083" x2="23.996" y2="39.305" xlink:href="#linear-gradient-9"/></defs><title>Weather Graadient</title><g id="Sunrise"><path class="cls-1" d="M24,9a1,1,0,0,1-1-1V5a1,1,0,0,1,2,0V8A1,1,0,0,1,24,9Z"/><path class="cls-2" d="M7,26H4a1,1,0,0,1,0-2H7a1,1,0,0,1,0,2Z"/><path class="cls-3" d="M44,26H41a1,1,0,0,1,0-2h3a1,1,0,0,1,0,2Z"/><path class="cls-4" d="M36.021,13.979a1,1,0,0,1-.707-1.707l2.122-2.122a1,1,0,0,1,1.414,1.414l-2.122,2.122A1,1,0,0,1,36.021,13.979Z"/><path class="cls-5" d="M11.979,13.979a1,1,0,0,1-.707-.293L9.15,11.564a1,1,0,0,1,1.414-1.414l2.122,2.122a1,1,0,0,1-.707,1.707Z"/><path class="cls-6" d="M16.661,30c3.667,0,3.667,2,7.334,2s3.666-2,7.332-2a6.375,6.375,0,0,1,3.2.754,12,12,0,1,0-21.065,0A6.366,6.366,0,0,1,16.661,30Z"/><path class="cls-7" d="M24,31a5.7,5.7,0,0,1-3.188-.878A7.614,7.614,0,0,0,16.661,29a7.609,7.609,0,0,0-2.724.445,11,11,0,1,1,20.124,0A7.634,7.634,0,0,0,31.326,29a7.609,7.609,0,0,0-4.144,1.122A5.7,5.7,0,0,1,24,31Z"/><path class="cls-8" d="M12.393,22a11.881,11.881,0,0,0,1.073,8.75A6.366,6.366,0,0,1,16.661,30c3.667,0,3.667,2,7.334,2s3.666-2,7.332-2a6.375,6.375,0,0,1,3.2.754A11.88,11.88,0,0,0,35.607,22Z"/><path class="cls-9" d="M24,44a7.614,7.614,0,0,1-4.146-1.122A5.7,5.7,0,0,0,16.661,42a1,1,0,1,1,0-2,7.614,7.614,0,0,1,4.146,1.122A5.7,5.7,0,0,0,24,42a5.7,5.7,0,0,0,3.188-.878A7.609,7.609,0,0,1,31.326,40a1,1,0,0,1,0,2,5.686,5.686,0,0,0-3.186.878A7.628,7.628,0,0,1,24,44Z"/><path class="cls-10" d="M38.663,33a7.621,7.621,0,0,1-4.146-1.122,6.227,6.227,0,0,0-6.376,0A7.628,7.628,0,0,1,24,33a7.614,7.614,0,0,1-4.146-1.122A5.7,5.7,0,0,0,16.661,31a5.7,5.7,0,0,0-3.188.878A7.613,7.613,0,0,1,9.329,33a7.612,7.612,0,0,1-4.144-1.122A5.686,5.686,0,0,0,2,31a1,1,0,0,1,0-2,7.622,7.622,0,0,1,4.145,1.122A5.674,5.674,0,0,0,9.329,31a5.7,5.7,0,0,0,3.187-.878A7.613,7.613,0,0,1,16.661,29a7.614,7.614,0,0,1,4.146,1.122A5.7,5.7,0,0,0,24,31a5.7,5.7,0,0,0,3.188-.878A7.609,7.609,0,0,1,31.326,29a7.622,7.622,0,0,1,4.147,1.122,6.234,6.234,0,0,0,6.38,0A7.621,7.621,0,0,1,46,29a1,1,0,0,1,0,2,5.7,5.7,0,0,0-3.189.878A7.622,7.622,0,0,1,38.663,33Z"/><path class="cls-11" d="M38.663,39a7.621,7.621,0,0,1-4.146-1.122,6.227,6.227,0,0,0-6.376,0A7.628,7.628,0,0,1,24,39a7.614,7.614,0,0,1-4.146-1.122A5.7,5.7,0,0,0,16.661,37a5.7,5.7,0,0,0-3.188.878A7.613,7.613,0,0,1,9.329,39a1,1,0,1,1,0-2,5.7,5.7,0,0,0,3.187-.878A7.613,7.613,0,0,1,16.661,35a7.614,7.614,0,0,1,4.146,1.122A5.7,5.7,0,0,0,24,37a5.7,5.7,0,0,0,3.188-.878A7.609,7.609,0,0,1,31.326,35a7.622,7.622,0,0,1,4.147,1.122A5.7,5.7,0,0,0,38.663,37a1,1,0,0,1,0,2Z"/></g></svg>