<svg xmlns="http://www.w3.org/2000/svg" xmlns:xlink="http://www.w3.org/1999/xlink" viewBox="0 0 48 48"><defs><style>.cls-1{fill:url(#linear-gradient);}.cls-2{fill:url(#linear-gradient-2);}.cls-3{fill:url(#linear-gradient-3);}.cls-4{fill:url(#linear-gradient-4);}.cls-5{fill:url(#linear-gradient-5);}.cls-6{fill:url(#linear-gradient-6);}.cls-7{fill:url(#linear-gradient-7);}.cls-8{fill:url(#linear-gradient-8);}.cls-9{fill:url(#linear-gradient-9);}.cls-10{fill:url(#linear-gradient-10);}.cls-11{fill:url(#linear-gradient-11);}</style><linearGradient id="linear-gradient" x1="24" y1="4.125" x2="24" y2="9.167" gradientUnits="userSpaceOnUse"><stop offset="0" stop-color="#ffca4f"/><stop offset="1" stop-color="#f7ae30"/></linearGradient><linearGradient id="linear-gradient-2" x1="3.063" y1="25" x2="7.656" y2="25" xlink:href="#linear-gradient"/><linearGradient id="linear-gradient-3" x1="44.906" y1="25" x2="39.906" y2="25" xlink:href="#linear-gradient"/><linearGradient id="linear-gradient-4" x1="38.791" y1="10.124" x2="35.437" y2="13.645" xlink:href="#linear-gradient"/><linearGradient id="linear-gradient-5" x1="9.246" y1="10.173" x2="12.621" y2="13.694" xlink:href="#linear-gradient"/><linearGradient id="linear-gradient-6" y1="13.5" x2="24" y2="31.141" xlink:href="#linear-gradient"/><linearGradient id="linear-gradient-7" x1="24" y1="12.25" x2="24" y2="21.125" gradientUnits="userSpaceOnUse"><stop offset="0" stop-color="#ffd980"/><stop offset="1" stop-color="#ffca4f" stop-opacity="0"/></linearGradient><linearGradient id="linear-gradient-8" x1="24" y1="23.222" x2="24" y2="31.063" gradientUnits="userSpaceOnUse"><stop offset="0" stop-color="#ffca4f" stop-opacity="0"/><stop offset="1" stop-color="#f4901f"/></linearGradient><linearGradient id="linear-gradient-9" x1="24" y1="29.875" x2="24" y2="31.879" gradientUnits="userSpaceOnUse"><stop offset="0" stop-color="#14a5ff"/><stop offset="1" stop-color="#037cff"/></linearGradient><linearGradient id="linear-gradient-10" y1="35.969" x2="24" y2="37.969" xlink:href="#linear-gradient-9"/><linearGradient id="linear-gradient-11" y1="42.031" x2="24" y2="43.989" xlink:href="#linear-gradient-9"/></defs><title>Weather Graadient</title><g id="Sunset"><path class="cls-1" d="M24,9a1,1,0,0,1-1-1V5a1,1,0,0,1,2,0V8A1,1,0,0,1,24,9Z"/><path class="cls-2" d="M7,26H4a1,1,0,0,1,0-2H7a1,1,0,0,1,0,2Z"/><path class="cls-3" d="M44,26H41a1,1,0,0,1,0-2h3a1,1,0,0,1,0,2Z"/><path class="cls-4" d="M36.021,13.979a1,1,0,0,1-.707-1.707l2.122-2.122a1,1,0,0,1,1.414,1.414l-2.122,2.122A1,1,0,0,1,36.021,13.979Z"/><path class="cls-5" d="M11.979,13.979a1,1,0,0,1-.707-.293L9.15,11.564a1,1,0,0,1,1.414-1.414l2.122,2.122a1,1,0,0,1-.707,1.707Z"/><path class="cls-6" d="M34.382,31a12,12,0,1,0-20.763,0Z"/><path class="cls-7" d="M14.211,30a11,11,0,1,1,19.578,0Z"/><path class="cls-8" d="M12.18,23a11.749,11.749,0,0,0,1.439,8H34.382a11.749,11.749,0,0,0,1.439-8Z"/><path class="cls-9" d="M46,32H2a1,1,0,0,1,0-2H46a1,1,0,0,1,0,2Z"/><path class="cls-10" d="M40,38H8a1,1,0,0,1,0-2H40a1,1,0,0,1,0,2Z"/><path class="cls-11" d="M34,44H14a1,1,0,0,1,0-2H34a1,1,0,0,1,0,2Z"/></g></svg>