<svg xmlns="http://www.w3.org/2000/svg" xmlns:xlink="http://www.w3.org/1999/xlink" viewBox="0 0 48 48"><defs><style>.cls-1{fill:url(#linear-gradient);}.cls-2{fill:url(#linear-gradient-2);}.cls-3{fill:url(#linear-gradient-3);}.cls-4{fill:url(#linear-gradient-4);}.cls-5{fill:url(#linear-gradient-5);}.cls-6{fill:url(#linear-gradient-6);}</style><linearGradient id="linear-gradient" x1="2" y1="18" x2="53.5" y2="18" gradientUnits="userSpaceOnUse"><stop offset="0" stop-color="#cdd3f1"/><stop offset="1" stop-color="#eaecf7"/></linearGradient><linearGradient id="linear-gradient-2" y1="12" x2="45.265" y2="12" xlink:href="#linear-gradient"/><linearGradient id="linear-gradient-3" y1="36" x2="47.753" y2="36" xlink:href="#linear-gradient"/><linearGradient id="linear-gradient-4" x1="1.32" y1="31" x2="15.17" y2="31" gradientUnits="userSpaceOnUse"><stop offset="0" stop-color="#9aa6e2"/><stop offset="1" stop-color="#e2e5f4" stop-opacity="0"/></linearGradient><linearGradient id="linear-gradient-5" x1="1.285" y1="25" x2="13.63" y2="25" xlink:href="#linear-gradient-4"/><linearGradient id="linear-gradient-6" x1="1.505" y1="17" x2="13.626" y2="17" xlink:href="#linear-gradient-4"/></defs><title>Weather Graadient</title><g id="Wind"><path class="cls-1" d="M39,10a8.009,8.009,0,0,0-8,8,1,1,0,0,0,2,0,6,6,0,1,1,6,6H2a1,1,0,0,0,0,2H39a8,8,0,0,0,0-16Z"/><path class="cls-2" d="M2,18H21a6,6,0,1,0-6-6,1,1,0,0,0,2,0,4,4,0,1,1,4,4H2a1,1,0,0,0,0,2Z"/><path class="cls-3" d="M36,30H2a1,1,0,0,0,0,2H36a4,4,0,1,1-4,4,1,1,0,0,0-2,0,6,6,0,1,0,6-6Z"/><path class="cls-4" d="M14.125,30H2a1,1,0,0,0,0,2H14.125Z"/><path class="cls-5" d="M14.125,24H2a1,1,0,0,0,0,2H14.125Z"/><path class="cls-6" d="M14.125,16H2a1,1,0,0,0,0,2H14.125Z"/></g></svg>